<svg width="22" height="22" viewBox="0 0 22 22" fill="none" xmlns="http://www.w3.org/2000/svg">
<path d="M19.065 14.0044C17.9033 14.0044 16.7794 13.8267 15.7311 13.5067C15.4006 13.4 15.0322 13.48 14.7772 13.72L13.2944 15.4711C10.6217 14.2711 8.11889 12.0044 6.78722 9.4L8.62889 7.92444C8.88389 7.67556 8.95944 7.32889 8.85556 7.01778C8.50611 6.03111 8.32667 4.97333 8.32667 3.88C8.32667 3.4 7.90167 3 7.39167 3H4.12389C3.61389 3 3 3.21333 3 3.88C3 12.1378 10.3006 19 19.065 19C19.7356 19 20 18.44 20 17.9511V14.8844C20 14.4044 19.575 14.0044 19.065 14.0044Z" fill="#FF6E30"/>
</svg>
