<svg width="190" height="30" viewBox="0 0 190 30" fill="none" xmlns="http://www.w3.org/2000/svg">
<path d="M43 24.3102V3.34759H48.5405V11.1337H56.6268V3.34759H62.1673V24.3102H56.6268V16.2246H48.5405V24.3102H43Z" fill="white"/>
<path d="M65.4476 4.54545C65.4476 3.82674 65.7172 3.22781 66.2563 2.74866C66.7953 2.24955 67.4742 2 68.2928 2C69.1114 2 69.7902 2.24955 70.3293 2.74866C70.8684 3.22781 71.1379 3.82674 71.1379 4.54545C71.1379 5.24421 70.8684 5.84314 70.3293 6.34225C69.7902 6.84135 69.1114 7.09091 68.2928 7.09091C67.4742 7.09091 66.7953 6.84135 66.2563 6.34225C65.7172 5.84314 65.4476 5.24421 65.4476 4.54545ZM65.7471 24.3102V8.73797H70.8384V24.3102H65.7471Z" fill="white"/>
<path d="M75.3989 21.9444C74.0611 20.467 73.3923 18.5604 73.3923 16.2246C73.3923 13.8888 74.0611 11.9822 75.3989 10.5048C76.7366 9.02745 78.3638 8.28877 80.2805 8.28877C81.6582 8.28877 82.8462 8.68806 83.8445 9.48663C84.3037 9.84599 84.6631 10.2453 84.9226 10.6845H85.2221V8.73797H90.3134V30H75.4887V25.9572H85.2221V21.9144H84.9226C84.6431 22.3537 84.2837 22.733 83.8445 23.0524C82.8661 23.7911 81.6782 24.1604 80.2805 24.1604C78.3638 24.1604 76.7366 23.4217 75.3989 21.9444ZM79.5318 13.5893C78.9328 14.2282 78.6334 15.1066 78.6334 16.2246C78.6334 17.3426 78.9328 18.221 79.5318 18.8599C80.1308 19.4988 80.9294 19.8182 81.9277 19.8182C82.926 19.8182 83.7247 19.4988 84.3236 18.8599C84.9226 18.221 85.2221 17.3426 85.2221 16.2246C85.2221 15.1066 84.9226 14.2282 84.3236 13.5893C83.7247 12.9504 82.926 12.631 81.9277 12.631C80.9294 12.631 80.1308 12.9504 79.5318 13.5893Z" fill="white"/>
<path d="M93.2943 24.3102V3.34759H98.3856V10.8342H98.6851C98.9646 10.3551 99.324 9.93583 99.7632 9.57647C100.782 8.718 101.969 8.28877 103.327 8.28877C105.164 8.28877 106.592 8.84777 107.61 9.96578C108.648 11.0638 109.167 12.651 109.167 14.7273V24.3102H104.076V15.4759C104.076 14.5775 103.836 13.8788 103.357 13.3797C102.878 12.8806 102.219 12.631 101.38 12.631C100.522 12.631 99.8032 12.9504 99.2242 13.5893C98.6651 14.2082 98.3856 15.0367 98.3856 16.0749V24.3102H93.2943Z" fill="white"/>
<path d="M120.406 30V8.73797H125.498V10.8342H125.797C126.077 10.375 126.456 9.95579 126.935 9.57647C128.033 8.718 129.201 8.28877 130.439 8.28877C132.356 8.28877 133.983 9.04742 135.321 10.5647C136.659 12.062 137.327 14.0485 137.327 16.5241C137.327 18.9996 136.659 20.9961 135.321 22.5134C133.983 24.0107 132.356 24.7594 130.439 24.7594C129.181 24.7594 128.013 24.3401 126.935 23.5016C126.456 23.1223 126.077 22.693 125.797 22.2139H125.498V30H120.406ZM126.396 13.6492C125.797 14.328 125.498 15.2863 125.498 16.5241C125.498 17.7619 125.797 18.7201 126.396 19.3989C126.995 20.0777 127.794 20.4171 128.792 20.4171C129.79 20.4171 130.589 20.0777 131.188 19.3989C131.787 18.7201 132.086 17.7619 132.086 16.5241C132.086 15.2863 131.787 14.328 131.188 13.6492C130.589 12.9704 129.79 12.631 128.792 12.631C127.794 12.631 126.995 12.9704 126.396 13.6492Z" fill="white"/>
<path d="M141.117 22.5134C139.779 20.9961 139.11 18.9996 139.11 16.5241C139.11 14.0485 139.779 12.062 141.117 10.5647C142.455 9.04742 144.082 8.28877 145.999 8.28877C147.236 8.28877 148.404 8.718 149.503 9.57647C149.962 9.95579 150.341 10.375 150.641 10.8342H150.94V8.73797H156.031V24.3102H150.94V22.2139H150.641C150.361 22.693 149.982 23.1223 149.503 23.5016C148.424 24.3401 147.256 24.7594 145.999 24.7594C144.082 24.7594 142.455 24.0107 141.117 22.5134ZM145.25 13.6492C144.651 14.328 144.351 15.2863 144.351 16.5241C144.351 17.7619 144.651 18.7201 145.25 19.3989C145.849 20.0777 146.647 20.4171 147.646 20.4171C148.644 20.4171 149.443 20.0777 150.042 19.3989C150.641 18.7201 150.94 17.7619 150.94 16.5241C150.94 15.2863 150.641 14.328 150.042 13.6492C149.443 12.9704 148.644 12.631 147.646 12.631C146.647 12.631 145.849 12.9704 145.25 13.6492Z" fill="white"/>
<path d="M158.114 19.2193H163.205C163.285 19.5187 163.455 19.7982 163.714 20.0578C164.253 20.5968 165.032 20.8663 166.05 20.8663C167.448 20.8663 168.147 20.5169 168.147 19.8182C168.147 19.4988 167.947 19.2492 167.548 19.0695C167.148 18.8699 166.549 18.6702 165.751 18.4706C165.092 18.3109 164.663 18.2111 164.463 18.1711C164.263 18.1312 163.844 18.0214 163.205 17.8417C162.566 17.6421 162.107 17.4724 161.827 17.3326C161.568 17.1729 161.199 16.9533 160.719 16.6738C160.26 16.3743 159.921 16.0749 159.701 15.7754C159.501 15.456 159.312 15.0667 159.132 14.6075C158.952 14.1283 158.862 13.6193 158.862 13.0802C158.862 11.7626 159.451 10.6346 160.629 9.69626C161.807 8.75793 163.465 8.28877 165.601 8.28877C168.276 8.28877 170.393 9.1672 171.95 10.9241C172.569 11.6827 172.998 12.5512 173.238 13.5294H168.296C168.177 13.21 168.037 12.9604 167.877 12.7807C167.418 12.2816 166.759 12.0321 165.9 12.0321C164.703 12.0321 164.104 12.3815 164.104 13.0802C164.104 13.4196 164.303 13.6791 164.703 13.8588C165.102 14.0385 165.711 14.2082 166.529 14.3679C168.586 14.8471 169.974 15.2663 170.692 15.6257C172.489 16.5041 173.388 17.8517 173.388 19.6684C173.388 21.1059 172.749 22.3137 171.471 23.292C170.213 24.2702 168.406 24.7594 166.05 24.7594C163.155 24.7594 160.949 23.841 159.432 22.0043C158.753 21.1857 158.313 20.2574 158.114 19.2193Z" fill="white"/>
<path d="M174.726 19.2193H179.817C179.897 19.5187 180.067 19.7982 180.327 20.0578C180.866 20.5968 181.644 20.8663 182.663 20.8663C184.06 20.8663 184.759 20.5169 184.759 19.8182C184.759 19.4988 184.559 19.2492 184.16 19.0695C183.761 18.8699 183.162 18.6702 182.363 18.4706C181.704 18.3109 181.275 18.2111 181.075 18.1711C180.876 18.1312 180.456 18.0214 179.817 17.8417C179.178 17.6421 178.719 17.4724 178.44 17.3326C178.18 17.1729 177.811 16.9533 177.332 16.6738C176.872 16.3743 176.533 16.0749 176.313 15.7754C176.114 15.456 175.924 15.0667 175.744 14.6075C175.565 14.1283 175.475 13.6193 175.475 13.0802C175.475 11.7626 176.064 10.6346 177.242 9.69626C178.42 8.75793 180.077 8.28877 182.213 8.28877C184.889 8.28877 187.005 9.1672 188.562 10.9241C189.181 11.6827 189.611 12.5512 189.85 13.5294H184.909C184.789 13.21 184.649 12.9604 184.489 12.7807C184.03 12.2816 183.371 12.0321 182.513 12.0321C181.315 12.0321 180.716 12.3815 180.716 13.0802C180.716 13.4196 180.915 13.6791 181.315 13.8588C181.714 14.0385 182.323 14.2082 183.142 14.3679C185.198 14.8471 186.586 15.2663 187.305 15.6257C189.102 16.5041 190 17.8517 190 19.6684C190 21.1059 189.361 22.3137 188.083 23.292C186.825 24.2702 185.019 24.7594 182.663 24.7594C179.767 24.7594 177.561 23.841 176.044 22.0043C175.365 21.1857 174.926 20.2574 174.726 19.2193Z" fill="white"/>
<path fill-rule="evenodd" clip-rule="evenodd" d="M6 6V24H24L6 6ZM0 0V30H30V0H0Z" fill="#FF6E30"/>
</svg>
